# xmcd CD database file
#
# Track frame offsets:
#	150
#	16465
#	30047
#	40222
#	53145
#	65760
#	78475
#	94975
#	110382
#	120332
#	131647
#	140852
#	149585
#	160802
#	173592
#	183840
#	192620
#	211550
#	225042
#	237072
#	248192
#	263962
#	281155
#
# Disc length: 3834 seconds
#
# Revision: 0
# Processed by: cddbd v1.5.1PL2 Copyright (c) Steve Scherf et al.
# Submitted via: CDex 1.51
#
DISCID=3e0ef817
DTITLE=Yancy de Veer - Ghosts of the Golden West
DYEAR=1900
DGENRE=Country
TTITLE0=Ghost riders in the sky
TTITLE1=South of the border
TTITLE2=Chime bell yodle
TTITLE3=Whispering pines
TTITLE4=Buffalo gal medley
TTITLE5=Don't fence me in
TTITLE6=Tennessee stud
TTITLE7=The Blizzard
TTITLE8=Everlasting hills of Oklahoma
TTITLE9=Old Paint
TTITLE10=Long tall Texan
TTITLE11=Ages and ages ago
TTITLE12=Git along li'l doggie
TTITLE13=Red river valley
TTITLE14=Warbash cannonball
TTITLE15=Waltz across texas
TTITLE16=Cheyenne stage
TTITLE17=Mockingbird Hill
TTITLE18=Streets of Laredo
TTITLE19=Blue Shadows on the trail
TTITLE20=I've been everywhere
TTITLE21=The works all done this fall
TTITLE22=Happy Trails
EXTD=
EXTT0=
EXTT1=
EXTT2=
EXTT3=
EXTT4=
EXTT5=
EXTT6=
EXTT7=
EXTT8=
EXTT9=
EXTT10=
EXTT11=
EXTT12=
EXTT13=
EXTT14=
EXTT15=
EXTT16=
EXTT17=
EXTT18=
EXTT19=
EXTT20=
EXTT21=
EXTT22=
PLAYORDER=
